<svg width="80" height="80" viewBox="0 0 80 80" fill="none" xmlns="http://www.w3.org/2000/svg">
<g clip-path="url(#clip0)">
<path d="M79.2037 54.837L76.8684 53.8696C69.353 46.1665 69.353 33.8236 76.8684 26.1204L79.2037 25.153C79.8621 24.8804 80.1748 24.1256 79.902 23.4672C79.6293 22.8088 78.8745 22.4961 78.2161 22.7689L75.8846 23.7347C71.4942 23.6826 67.3531 22.233 63.8955 19.5282C63.3339 19.0888 62.5231 19.1879 62.0842 19.7494C61.6452 20.3108 61.7441 21.1218 62.3055 21.5607C64.9189 23.6052 67.8779 25.0151 71.0348 25.7435L62.9847 29.078C56.3864 28.9498 51.0457 23.6092 50.9176 17.0109L54.2521 8.96074C54.9803 12.1177 56.3902 15.0763 58.4347 17.6897C58.8739 18.2511 59.6848 18.3502 60.246 17.911C60.8073 17.4719 60.9063 16.6609 60.4672 16.0997C57.7626 12.6422 56.3131 8.50122 56.2608 4.11074L57.2267 1.77907C57.4995 1.12067 57.1869 0.365928 56.5283 0.093243C55.8705 -0.179958 55.1154 0.133157 54.8425 0.791557L53.875 3.12753C50.1424 6.77015 45.2259 8.77459 40.0007 8.77459C34.7755 8.77459 29.8591 6.77032 26.1263 3.12753L25.1588 0.791557C24.8861 0.133157 24.1313 -0.179442 23.4729 0.093243C22.8145 0.365928 22.5018 1.12067 22.7746 1.77907L23.7424 4.11573C23.6092 14.8764 14.8817 23.6037 4.12127 23.7368L1.7853 22.7693C1.12741 22.4961 0.372155 22.8092 0.0994699 23.4676C-0.173387 24.126 0.139211 24.8807 0.797784 25.1534L3.13307 26.1208C10.6485 33.8239 10.6485 46.1668 3.13307 53.8699L0.797784 54.8373C0.139383 55.11 -0.173387 55.8647 0.0994699 56.5231C0.305231 57.0202 0.785569 57.32 1.29206 57.32C1.45653 57.32 1.62392 57.2882 1.7853 57.2215L4.12127 56.2539C14.8819 56.3865 23.6094 65.114 23.7424 75.8745L22.7748 78.2104C22.5019 78.8688 22.8145 79.6236 23.4731 79.8963C24.131 80.1696 24.8861 79.8565 25.1589 79.198L26.1265 76.862C29.8591 73.2194 34.7755 71.2149 40.0009 71.2149C45.2263 71.2149 50.1425 73.2192 53.8751 76.862L54.8427 79.198C55.0484 79.695 55.5288 79.9948 56.0353 79.9948C56.1997 79.9948 56.3671 79.963 56.5285 79.8963C57.1869 79.6236 57.4997 78.8688 57.2268 78.2104L56.2593 75.8745C56.3924 65.1138 65.1199 56.3865 75.8803 56.2534L78.2163 57.2209C78.3777 57.288 78.5449 57.3195 78.7096 57.3195C79.2159 57.3195 79.6962 57.0195 79.9021 56.5226C80.1748 55.8644 79.8621 55.1097 79.2037 54.837ZM72.0402 51.8698L63.972 48.5279C59.3971 43.7717 59.3971 36.2189 63.972 31.4626L72.0399 28.1208C67.5267 35.3613 67.5272 44.6291 72.0402 51.8698ZM59.5432 46.6932L43.3726 39.995L59.5432 33.2969C57.4322 37.497 57.4324 42.4932 59.5432 46.6932ZM58.5553 30.913L42.3847 37.611L49.0829 21.4402C50.5602 25.9028 54.0929 29.4357 58.5553 30.913ZM30.9185 58.55C29.4412 54.0876 25.9085 50.5547 21.4461 49.0772L37.6168 42.3792L30.9185 58.55ZM40.0007 43.3668L46.6948 59.5277C44.6438 58.4937 42.3647 57.9454 40.0007 57.9454C37.6369 57.9454 35.3579 58.4939 33.3066 59.5277L40.0007 43.3668ZM28.4324 33.8069L21.4459 30.913C25.9083 29.4357 29.4412 25.9028 30.9185 21.4402L37.6166 37.611L33.2017 35.7822C32.5438 35.509 31.7885 35.8222 31.5158 36.4806C31.243 37.139 31.5556 37.8937 32.2142 38.1664L36.6289 39.9952L20.4584 46.6932C22.5694 42.4932 22.5694 37.4972 20.4584 33.2971L27.4448 36.191C27.6062 36.2581 27.7736 36.2896 27.9381 36.2896C28.4444 36.2896 28.9247 35.9896 29.1307 35.4927C29.4034 34.8343 29.0908 34.0796 28.4324 33.8069ZM33.3066 20.4625C35.3579 21.4965 37.6369 22.0448 40.0007 22.0448C42.3646 22.0448 44.6436 21.4963 46.6948 20.4625L40.0007 36.6235L33.3066 20.4625ZM40.0007 11.3557C44.2622 11.3557 48.3423 10.176 51.8686 7.97202L48.5333 16.0242C46.2281 18.2427 43.2091 19.4642 40.0007 19.4642C36.7923 19.4642 33.7734 18.2427 31.4682 16.0242L28.1328 7.97185C31.6593 10.176 35.7391 11.3557 40.0007 11.3557ZM25.7452 8.95111L29.0839 17.0112C28.9557 23.6095 23.615 28.9502 17.0168 29.0783L8.95682 25.7397C17.2624 23.8096 23.815 17.2569 25.7452 8.95111ZM7.96122 28.1206L16.0294 31.4625C20.6042 36.2187 20.6042 43.7715 16.0294 48.5277L7.96139 51.8696C12.474 44.6293 12.474 35.3609 7.96122 28.1206ZM8.95682 54.2505L17.0168 50.9119C23.615 51.04 28.9557 56.3807 29.0839 62.979L25.7454 71.0389C23.8151 62.7333 17.2624 56.1808 8.95682 54.2505ZM40.0007 68.6345C35.7391 68.6345 31.6592 69.8143 28.1328 72.0183L31.4682 63.966C33.7734 61.7475 36.7923 60.526 40.0007 60.526C43.2091 60.526 46.2281 61.7475 48.5333 63.966L51.8686 72.0183C48.3421 69.8143 44.2622 68.6345 40.0007 68.6345ZM54.2562 71.0391L50.916 62.975C50.9628 60.5897 51.6876 58.2945 53.0235 56.3227C53.4232 55.7328 53.269 54.9304 52.6791 54.5307C52.0892 54.1313 51.2869 54.2852 50.8871 54.8752C50.1122 56.0189 49.5077 57.2526 49.0809 58.5446L42.3847 42.3792L58.5503 49.0752C57.2583 49.502 56.0244 50.1064 54.8809 50.8814C54.2909 51.2811 54.1368 52.0833 54.5365 52.6734C54.9361 53.2635 55.7383 53.4173 56.3284 53.0178C58.3 51.6819 60.5954 50.9571 62.9807 50.9103L71.0446 54.2505C62.7388 56.1808 56.1865 62.7335 54.2562 71.0391Z" fill="#DFDFDF"/>
</g>
<defs>
<clipPath id="clip0">
<rect width="80" height="80" fill="white"/>
</clipPath>
</defs>
</svg>
